{"asset":{"version":"2.0","generator":"VECTARY"},"nodes":[{"translation":[-0.13186295429964917,0.44804236184589924,-0.004698903312978303],"scale":[0.005772973118178252,0.005772973118178252,0.005772973118178252],"rotation":[-4.329780281177466e-17,0.7071067811865476,-0.7071067811865475,4.329780281177467e-17],"name":"Merged Objects 1","mesh":0}],"materials":[{"pbrMetallicRoughness":{"baseColorFactor":[0,0,0,1],"metallicFactor":1,"roughnessFactor":0},"name":"Lifeline","emissiveFactor":[0,0,0],"extensions":{},"alphaMode":"OPAQUE","doubleSided":true}],"meshes":[{"primitives":[{"mode":4,"attributes":{"POSITION":1,"NORMAL":2,"TEXCOORD_0":3},"material":0,"indices":0}]}],"accessors":[{"bufferView":0,"byteOffset":0,"componentType":5125,"count":18432,"type":"SCALAR"},{"bufferView":1,"byteOffset":0,"componentType":5126,"count":3516,"max":[54.94424057006836,14.56806468963623,96.77118682861328],"min":[-54.94424057006836,-14.56806468963623,0],"type":"VEC3"},{"bufferView":2,"byteOffset":0,"componentType":5126,"count":3516,"type":"VEC3"},{"bufferView":3,"byteOffset":0,"componentType":5126,"count":3516,"type":"VEC2"}],"bufferViews":[{"buffer":0,"byteOffset":0,"byteLength":73728,"target":34963},{"buffer":0,"byteOffset":73728,"byteLength":42192,"target":34962},{"buffer":0,"byteOffset":115920,"byteLength":42192,"target":34962},{"buffer":0,"byteOffset":158112,"byteLength":28128,"target":34962}],"scene":0,"scenes":[{"nodes":[0],"name":"Project Name"}],"extensionsUsed":["KHR_texture_transform"],"buffers":[{"byteLength":186240,"uri":"ProjectName.bin"}]}